<svg id="epLqMVeaEu61" xmlns="http://www.w3.org/2000/svg" viewBox="0 0 225 225" shape-rendering="geometricPrecision" text-rendering="geometricPrecision">
  <g transform="translate(0,225) scale(0.1,-0.1)">
    <path d="M826,1718c-30-29-406-683-406-708c0-22,31-42,48-32c6,4,59,91,118,192c291,505,288,501,309,498c14-2,67-86,195-308l175-305l43-3c23-2,42-1,42,1s-54,98-121,213c-66,115-150,260-186,322-36,63-75,122-86,133-30,27-98,26-131-3Z" fill="#ff5757"/>
    <path d="M906,1493c-7-16-181-321-313-546-34-60-63-117-63-127c0-23,23-42,43-34c12,4,299,489,385,647c5,10-29,77-39,77-4,0-10-8-13-17Z" fill="#ff5757"/>
  </g>
  <g transform="matrix(-.05-.086603-.086603 0.05 260.234037 160.112529)">
    <path d="M826,1718c-30-29-406-683-406-708c0-22,31-42,48-32c6,4,59,91,118,192c291,505,288,501,309,498c14-2,67-86,195-308l175-305l43-3c23-2,42-1,42,1s-54,98-121,213c-66,115-150,260-186,322-36,63-75,122-86,133-30,27-98,26-131-3Z" fill="#25aae1"/>
    <path d="M906,1493c-7-16-181-321-313-546-34-60-63-117-63-127c0-23,23-42,43-34c12,4,299,489,385,647c5,10-29,77-39,77-4,0-10-8-13-17Z" fill="#25aae1"/>
  </g>
  <g transform="matrix(-.05 0.086603 0.086603 0.05 74.723686-32.76866)">
    <path d="M826,1718c-30-29-406-683-406-708c0-22,31-42,48-32c6,4,59,91,118,192c291,505,288,501,309,498c14-2,67-86,195-308l175-305l43-3c23-2,42-1,42,1s-54,98-121,213c-66,115-150,260-186,322-36,63-75,122-86,133-30,27-98,26-131-3Z" fill="#f7941d"/>
    <path d="M906,1493c-7-16-181-321-313-546-34-60-63-117-63-127c0-23,23-42,43-34c12,4,299,489,385,647c5,10-29,77-39,77-4,0-10-8-13-17Z" fill="#f7941d"/>
  </g>
</svg>