<svg xmlns="http://www.w3.org/2000/svg" xmlns:xlink="http://www.w3.org/1999/xlink" width="1080" zoomAndPan="magnify" viewBox="0 0 810 809.999993" height="1080" preserveAspectRatio="xMidYMid meet" version="1.0"><defs><clipPath id="f6fc4e7c94"><path d="M 281 355 L 338 355 L 338 496 L 281 496 Z M 281 355 " clip-rule="nonzero"/></clipPath><clipPath id="9015a4c673"><path d="M 281.363281 361.199219 L 309.933594 355.421875 L 337.046875 489.46875 L 308.472656 495.246094 Z M 281.363281 361.199219 " clip-rule="nonzero"/></clipPath><clipPath id="783c19759c"><path d="M 281.363281 361.199219 L 309.933594 355.421875 L 337.035156 489.410156 L 308.460938 495.1875 Z M 281.363281 361.199219 " clip-rule="nonzero"/></clipPath><clipPath id="bbf0d0e9df"><path d="M 207 371 L 262 371 L 262 512 L 207 512 Z M 207 371 " clip-rule="nonzero"/></clipPath><clipPath id="0ec112d106"><path d="M 207.234375 377.167969 L 234.285156 371.695312 L 261.402344 505.78125 L 234.355469 511.253906 Z M 207.234375 377.167969 " clip-rule="nonzero"/></clipPath><clipPath id="cecc7043de"><path d="M 207.234375 377.167969 L 234.285156 371.695312 L 261.382812 505.683594 L 234.335938 511.15625 Z M 207.234375 377.167969 " clip-rule="nonzero"/></clipPath><clipPath id="6b0c7d45fc"><path d="M 216 371 L 328 371 L 328 496 L 216 496 Z M 216 371 " clip-rule="nonzero"/></clipPath><clipPath id="a4ffbd4b48"><path d="M 216.179688 388.128906 L 235.234375 371.695312 L 327.613281 478.800781 L 308.558594 495.234375 Z M 216.179688 388.128906 " clip-rule="nonzero"/></clipPath><clipPath id="ef2ccfb769"><path d="M 216.179688 388.128906 L 235.234375 371.695312 L 327.574219 478.753906 L 308.519531 495.1875 Z M 216.179688 388.128906 " clip-rule="nonzero"/></clipPath><clipPath id="2c272aaa73"><path d="M 431 319 L 519 319 L 519 460 L 431 460 Z M 431 319 " clip-rule="nonzero"/></clipPath><clipPath id="7a7142beea"><path d="M 431.515625 331.589844 L 458.101562 319.070312 L 518.164062 446.605469 L 491.578125 459.125 Z M 431.515625 331.589844 " clip-rule="nonzero"/></clipPath><clipPath id="0ed4dcbfe7"><path d="M 431.515625 331.589844 L 458.101562 319.070312 L 518.128906 446.527344 L 491.542969 459.050781 Z M 431.515625 331.589844 " clip-rule="nonzero"/></clipPath><clipPath id="3ce5797693"><path d="M 501 310 L 587 310 L 587 446 L 501 446 Z M 501 310 " clip-rule="nonzero"/></clipPath><clipPath id="23fe10d06b"><path d="M 501.746094 321.71875 L 524.714844 310.257812 L 586.460938 433.984375 L 563.492188 445.445312 Z M 501.746094 321.71875 " clip-rule="nonzero"/></clipPath><clipPath id="783bc345d9"><path d="M 501.746094 321.71875 L 524.714844 310.257812 L 586.433594 433.929688 L 563.464844 445.390625 Z M 501.746094 321.71875 " clip-rule="nonzero"/></clipPath><clipPath id="4b5714bb32"><path d="M 491 315 L 528 315 L 528 456 L 491 456 Z M 491 315 " clip-rule="nonzero"/></clipPath><clipPath id="ed04e49faf"><path d="M 502.210938 315.617188 L 528 317.691406 L 516.902344 455.816406 L 491.109375 453.746094 Z M 502.210938 315.617188 " clip-rule="nonzero"/></clipPath><clipPath id="aac0609abf"><path d="M 502.210938 315.617188 L 528 317.691406 L 516.90625 455.789062 L 491.113281 453.714844 Z M 502.210938 315.617188 " clip-rule="nonzero"/></clipPath><clipPath id="2f6bebc6e3"><path d="M 561 299 L 597 299 L 597 443 L 561 443 Z M 561 299 " clip-rule="nonzero"/></clipPath><clipPath id="38b677d59b"><path d="M 567.75 299.878906 L 596.0625 301.210938 L 589.414062 442.214844 L 561.105469 440.882812 Z M 567.75 299.878906 " clip-rule="nonzero"/></clipPath><clipPath id="97184d846d"><path d="M 567.75 299.878906 L 596.0625 301.210938 L 589.417969 442.144531 L 561.109375 440.808594 Z M 567.75 299.878906 " clip-rule="nonzero"/></clipPath><clipPath id="f06be40f4b"><path d="M 501 310 L 531 310 L 531 342 L 501 342 Z M 501 310 " clip-rule="nonzero"/></clipPath><clipPath id="d3505f2d75"><path d="M 501.746094 315.21875 L 524.335938 310.257812 L 530.132812 336.640625 L 507.542969 341.605469 Z M 501.746094 315.21875 " clip-rule="nonzero"/></clipPath><clipPath id="faec35fff6"><path d="M 501.746094 315.21875 L 524.335938 310.257812 L 530.125 336.617188 L 507.535156 341.578125 Z M 501.746094 315.21875 " clip-rule="nonzero"/></clipPath><clipPath id="92803370be"><path d="M 485 429 L 516 429 L 516 462 L 485 462 Z M 485 429 " clip-rule="nonzero"/></clipPath><clipPath id="dd3032be71"><path d="M 485.535156 434.917969 L 510.144531 429.511719 L 515.953125 455.949219 L 491.34375 461.355469 Z M 485.535156 434.917969 " clip-rule="nonzero"/></clipPath><clipPath id="c5464b4de9"><path d="M 485.535156 434.917969 L 510.144531 429.511719 L 515.9375 455.867188 L 491.324219 461.273438 Z M 485.535156 434.917969 " clip-rule="nonzero"/></clipPath><clipPath id="76d63b02ec"><path d="M 558 415 L 589 415 L 589 448 L 558 448 Z M 558 415 " clip-rule="nonzero"/></clipPath><clipPath id="46ed4abd08"><path d="M 558.246094 421.136719 L 582.855469 415.730469 L 588.664062 442.167969 L 564.054688 447.574219 Z M 558.246094 421.136719 " clip-rule="nonzero"/></clipPath><clipPath id="8269d445f5"><path d="M 558.246094 421.136719 L 582.855469 415.730469 L 588.648438 442.085938 L 564.035156 447.492188 Z M 558.246094 421.136719 " clip-rule="nonzero"/></clipPath><clipPath id="f4fb35836d"><path d="M 333 345 L 390 345 L 390 486 L 333 486 Z M 333 345 " clip-rule="nonzero"/></clipPath><clipPath id="e4a23926e2"><path d="M 333.089844 351.625 L 362.414062 345.695312 L 389.519531 479.707031 L 360.195312 485.636719 Z M 333.089844 351.625 " clip-rule="nonzero"/></clipPath><clipPath id="0bcb340720"><path d="M 333.089844 351.625 L 362.414062 345.695312 L 389.515625 479.683594 L 360.191406 485.613281 Z M 333.089844 351.625 " clip-rule="nonzero"/></clipPath><clipPath id="ff8de51471"><path d="M 360 332 L 432 332 L 432 375 L 360 375 Z M 360 332 " clip-rule="nonzero"/></clipPath><clipPath id="62cc648128"><path d="M 366.847656 374.554688 L 360.925781 346.011719 L 425.59375 332.59375 L 431.515625 361.136719 Z M 366.847656 374.554688 " clip-rule="nonzero"/></clipPath><clipPath id="e0e6747f49"><path d="M 366.847656 374.554688 L 360.925781 346.011719 L 425.589844 332.59375 L 431.511719 361.136719 Z M 366.847656 374.554688 " clip-rule="nonzero"/></clipPath><clipPath id="9fdfce512b"><path d="M 378 437 L 453 437 L 453 481 L 378 481 Z M 378 437 " clip-rule="nonzero"/></clipPath><clipPath id="e62431f193"><path d="M 384.703125 480.023438 L 378.78125 451.480469 L 446.679688 437.394531 L 452.601562 465.9375 Z M 384.703125 480.023438 " clip-rule="nonzero"/></clipPath><clipPath id="db68738a80"><path d="M 384.703125 480.023438 L 378.78125 451.480469 L 446.609375 437.40625 L 452.53125 465.949219 Z M 384.703125 480.023438 " clip-rule="nonzero"/></clipPath><clipPath id="882c0753a7"><path d="M 357 385 L 428 385 L 428 428 L 357 428 Z M 357 385 " clip-rule="nonzero"/></clipPath><clipPath id="9b54c25928"><path d="M 363.207031 427.65625 L 357.28125 399.113281 L 421.949219 385.695312 L 427.875 414.238281 Z M 363.207031 427.65625 " clip-rule="nonzero"/></clipPath><clipPath id="c790029763"><path d="M 363.207031 427.65625 L 357.28125 399.113281 L 421.945312 385.695312 L 427.867188 414.238281 Z M 363.207031 427.65625 " clip-rule="nonzero"/></clipPath></defs><path fill="#ff5757" d="M 17.828125 321.25 C 17.828125 321.25 17.820312 321.226562 17.816406 321.207031 L 16.753906 318.417969 Z M 17.828125 321.25 " fill-opacity="1" fill-rule="nonzero"/><path fill="#ff5757" d="M 24.257812 258.527344 L 41.941406 246.980469 C 41.949219 246.980469 41.960938 246.96875 41.96875 246.957031 Z M 24.257812 258.527344 " fill-opacity="1" fill-rule="nonzero"/><path fill="#ff5757" d="M 756.933594 412.066406 C 756.066406 409.792969 755.632812 407.398438 755.632812 405 C 755.632812 402.59375 756.066406 400.1875 756.941406 397.894531 L 783.625 327.847656 L 786.136719 321.25 C 788.886719 314.027344 790.222656 306.496094 790.222656 299.089844 C 790.230469 278.546875 780.003906 258.722656 762.003906 246.957031 L 753.148438 241.175781 L 693.285156 202.085938 C 689.21875 199.421875 686.25 195.320312 684.976562 190.621094 L 663.542969 111.445312 C 656.148438 84.1875 631.460938 65.445312 603.460938 65.445312 C 602.402344 65.445312 601.351562 65.46875 600.292969 65.53125 L 518.683594 69.609375 L 518.683594 69.601562 L 517.460938 69.632812 C 512.878906 69.632812 508.460938 68.082031 504.910156 65.222656 L 445.164062 17.09375 L 441.050781 13.789062 C 429.679688 4.605469 415.789062 -0.0078125 401.988281 0 C 388.191406 -0.0195312 374.296875 4.605469 362.914062 13.789062 L 362.929688 13.78125 L 305.652344 59.910156 L 299.074219 65.210938 C 295.503906 68.082031 291.074219 69.632812 286.511719 69.632812 L 285.449219 69.609375 L 203.886719 65.539062 L 203.835938 65.53125 C 202.570312 65.457031 201.457031 65.445312 200.507812 65.445312 C 172.503906 65.445312 147.824219 84.183594 140.425781 111.445312 L 118.992188 190.621094 C 117.714844 195.339844 114.730469 199.453125 110.640625 202.125 L 104.738281 205.980469 L 41.941406 246.980469 C 23.953125 258.753906 13.734375 278.566406 13.746094 299.101562 C 13.746094 306.496094 15.074219 313.996094 17.816406 321.207031 L 47.027344 397.890625 L 47.03125 397.902344 C 47.898438 400.175781 48.339844 402.59375 48.339844 405 C 48.339844 407.40625 47.90625 409.8125 47.03125 412.085938 L 17.828125 488.75 L 17.832031 488.742188 C 15.078125 495.960938 13.746094 503.484375 13.746094 510.886719 C 13.734375 531.433594 23.953125 551.265625 41.964844 563.042969 L 92.9375 596.324219 L 110.65625 607.894531 C 114.742188 610.558594 117.714844 614.648438 118.992188 619.378906 L 140.425781 698.546875 C 147.816406 725.804688 172.511719 744.542969 200.507812 744.554688 C 201.457031 744.542969 202.492188 744.53125 203.597656 744.46875 L 201.253906 744.59375 L 285.792969 740.371094 L 285.753906 740.371094 L 286.542969 740.359375 C 291.078125 740.359375 295.496094 741.910156 299.058594 744.78125 L 362.925781 796.230469 L 362.929688 796.230469 C 374.296875 805.394531 388.1875 810.011719 401.988281 810 C 415.78125 810.011719 429.675781 805.394531 441.050781 796.222656 L 510.40625 740.347656 L 504.921875 744.769531 C 508.484375 741.898438 512.890625 740.359375 517.429688 740.359375 L 518.378906 740.378906 L 600.945312 744.5 L 600.53125 744.480469 C 601.429688 744.523438 602.40625 744.542969 603.464844 744.554688 C 631.453125 744.542969 656.15625 725.816406 663.546875 698.546875 L 684.980469 619.378906 C 686.257812 614.648438 689.226562 610.570312 693.304688 607.902344 L 762.042969 563.019531 C 780.023438 551.246094 790.234375 531.433594 790.222656 510.898438 C 790.222656 503.492188 788.890625 495.960938 786.132812 488.730469 Z M 717.410156 382.832031 C 714.6875 389.972656 713.324219 397.488281 713.324219 405 C 713.324219 412.519531 714.6875 420.039062 717.410156 427.179688 L 746.597656 503.8125 L 746.601562 503.824219 C 747.496094 506.167969 747.914062 508.542969 747.914062 510.898438 C 747.902344 517.492188 744.648438 523.851562 738.871094 527.625 L 670.195312 572.464844 L 670.199219 572.464844 C 657.40625 580.808594 648.128906 593.578125 644.136719 608.328125 L 622.703125 687.492188 C 620.351562 696.234375 612.398438 702.246094 603.464844 702.234375 L 602.277344 702.203125 L 601.976562 702.191406 L 520.542969 698.132812 L 520.601562 698.132812 C 519.597656 698.070312 518.539062 698.050781 517.429688 698.039062 C 503.242188 698.039062 489.453125 702.894531 478.363281 711.832031 L 472.875 716.261719 L 414.503906 763.28125 C 410.824219 766.246094 406.457031 767.691406 401.988281 767.691406 C 397.527344 767.691406 393.152344 766.246094 389.46875 763.28125 L 325.605469 711.832031 C 314.523438 702.90625 300.738281 698.050781 286.546875 698.050781 C 285.59375 698.050781 284.484375 698.0625 283.214844 698.132812 L 283.214844 698.144531 L 201.519531 702.222656 L 201.542969 702.214844 L 200.511719 702.234375 C 191.585938 702.246094 183.621094 696.234375 181.273438 687.496094 L 159.839844 608.332031 C 155.847656 593.578125 146.570312 580.8125 133.777344 572.464844 L 82.816406 539.195312 L 65.109375 527.625 C 59.332031 523.863281 56.070312 517.492188 56.058594 510.890625 C 56.0625 508.523438 56.476562 506.148438 57.367188 503.824219 L 86.570312 427.167969 L 86.566406 427.179688 C 89.289062 420.03125 90.652344 412.523438 90.652344 405 C 90.652344 397.480469 89.292969 389.960938 86.566406 382.824219 L 58.441406 309.019531 L 57.367188 306.207031 C 56.476562 303.851562 56.0625 301.46875 56.054688 299.101562 C 56.066406 292.5 59.324219 286.148438 65.097656 282.390625 L 133.78125 237.550781 L 133.792969 237.539062 C 146.578125 229.171875 155.84375 216.414062 159.839844 201.675781 L 181.273438 122.5 C 183.617188 113.769531 191.589844 107.746094 200.511719 107.757812 L 201.304688 107.769531 L 283.429688 111.867188 L 283.519531 111.878906 C 284.515625 111.921875 285.519531 111.941406 286.515625 111.953125 C 300.703125 111.953125 314.496094 107.105469 325.59375 98.183594 L 389.484375 46.71875 C 393.15625 43.753906 397.519531 42.320312 401.988281 42.308594 C 406.453125 42.308594 410.820312 43.753906 414.496094 46.71875 L 410.382812 43.40625 L 478.375 98.171875 C 489.484375 107.117188 503.296875 111.941406 517.460938 111.941406 C 518.515625 111.941406 519.460938 111.910156 520.296875 111.890625 L 520.078125 111.890625 L 602.460938 107.777344 L 602.515625 107.777344 L 603.46875 107.757812 C 612.390625 107.746094 620.359375 113.769531 622.703125 122.496094 L 644.136719 201.671875 C 648.128906 216.414062 657.394531 229.167969 670.183594 237.539062 L 747.730469 288.171875 L 738.871094 282.386719 C 744.648438 286.148438 747.902344 292.5 747.914062 299.089844 C 747.914062 301.457031 747.496094 303.832031 746.597656 306.199219 L 713.640625 392.707031 Z M 717.410156 382.832031 " fill-opacity="1" fill-rule="nonzero"/><path fill="#ff5757" d="M 307.300781 358.011719 L 285.496094 362.296875 C 284.347656 362.535156 283.71875 363.441406 283.945312 364.609375 L 300.167969 447.152344 L 299.222656 447.347656 L 236.6875 373.90625 C 235.65625 372.710938 234.394531 372.347656 233.042969 372.617188 L 209.886719 377.171875 C 208.742188 377.398438 208.109375 378.308594 208.359375 379.472656 L 233.382812 506.746094 C 233.605469 507.914062 234.527344 508.542969 235.675781 508.316406 L 257.480469 504.027344 C 258.628906 503.789062 259.257812 502.871094 259.035156 501.703125 L 242.832031 419.355469 L 243.796875 419.171875 L 306.46875 492.386719 C 307.5 493.585938 308.585938 493.96875 310.132812 493.675781 L 333.089844 489.152344 C 334.234375 488.925781 334.863281 488.007812 334.617188 486.839844 L 309.597656 359.558594 C 309.371094 358.394531 308.449219 357.785156 307.300781 358.011719 Z M 307.300781 358.011719 " fill-opacity="1" fill-rule="nonzero"/><path fill="#ff5757" d="M 441.324219 442.414062 L 384.796875 453.527344 C 384.035156 453.695312 383.5625 453.386719 383.429688 452.609375 L 378.074219 425.410156 C 377.914062 424.648438 378.230469 424.191406 378.992188 424.027344 L 426.070312 414.773438 C 427.21875 414.546875 427.847656 413.636719 427.625 412.480469 L 423.597656 392.039062 C 423.371094 390.894531 422.445312 390.261719 421.300781 390.480469 L 374.226562 399.746094 C 373.460938 399.886719 372.988281 399.570312 372.832031 398.804688 L 367.71875 372.773438 C 367.566406 372 367.878906 371.535156 368.644531 371.390625 L 425.171875 360.273438 C 426.320312 360.046875 426.949219 359.128906 426.699219 357.972656 L 422.648438 337.34375 C 422.421875 336.175781 421.503906 335.558594 420.351562 335.785156 L 336.261719 352.324219 C 335.089844 352.550781 334.480469 353.46875 334.710938 354.636719 L 359.734375 481.917969 C 359.980469 483.074219 360.878906 483.695312 362.050781 483.46875 L 446.136719 466.929688 C 447.289062 466.699219 447.917969 465.78125 447.671875 464.625 L 443.617188 443.984375 C 443.398438 442.828125 442.472656 442.1875 441.324219 442.414062 Z M 441.324219 442.414062 " fill-opacity="1" fill-rule="nonzero"/><path fill="#ff5757" d="M 593.757812 301.683594 L 569.070312 306.539062 C 567.722656 306.796875 567.070312 307.539062 567.136719 308.933594 L 565.203125 394.824219 L 564.796875 394.898438 L 525.488281 317.125 C 524.855469 316.019531 523.929688 315.410156 522.785156 315.636719 L 506 318.933594 C 504.671875 319.203125 504.042969 320.109375 503.882812 321.371094 L 497.695312 408.097656 L 497.3125 408.179688 L 462.207031 329.550781 C 461.804688 328.414062 460.878906 327.816406 459.53125 328.085938 L 434.644531 332.960938 C 433.296875 333.230469 433.066406 334.078125 433.496094 335.203125 L 492.453125 455.800781 C 493.082031 456.882812 494.003906 457.515625 495.15625 457.289062 L 514.4375 453.484375 C 515.789062 453.226562 516.417969 452.296875 516.570312 451.070312 L 523.480469 364.984375 L 523.863281 364.910156 L 562.65625 442 C 563.265625 443.085938 564.191406 443.714844 565.539062 443.445312 L 584.824219 439.644531 C 586.171875 439.394531 586.984375 438.425781 586.964844 437.214844 L 595.671875 303.304688 C 595.625 302.097656 595.105469 301.414062 593.757812 301.683594 Z M 593.757812 301.683594 " fill-opacity="1" fill-rule="nonzero"/><g clip-path="url(#f6fc4e7c94)"><g clip-path="url(#9015a4c673)"><g clip-path="url(#783c19759c)"><path fill="#25aae1" d="M 281.363281 361.199219 L 309.933594 355.421875 L 337.023438 489.355469 L 308.449219 495.132812 Z M 281.363281 361.199219 " fill-opacity="1" fill-rule="nonzero"/></g></g></g><g clip-path="url(#bbf0d0e9df)"><g clip-path="url(#0ec112d106)"><g clip-path="url(#cecc7043de)"><path fill="#25aae1" d="M 207.234375 377.167969 L 234.285156 371.695312 L 261.382812 505.675781 L 234.332031 511.144531 Z M 207.234375 377.167969 " fill-opacity="1" fill-rule="nonzero"/></g></g></g><g clip-path="url(#6b0c7d45fc)"><g clip-path="url(#a4ffbd4b48)"><g clip-path="url(#ef2ccfb769)"><path fill="#25aae1" d="M 216.179688 388.128906 L 235.234375 371.695312 L 327.546875 478.726562 L 308.496094 495.160156 Z M 216.179688 388.128906 " fill-opacity="1" fill-rule="nonzero"/></g></g></g><g clip-path="url(#2c272aaa73)"><g clip-path="url(#7a7142beea)"><g clip-path="url(#0ed4dcbfe7)"><path fill="#25aae1" d="M 431.515625 331.589844 L 458.101562 319.070312 L 518.117188 446.5 L 491.527344 459.019531 Z M 431.515625 331.589844 " fill-opacity="1" fill-rule="nonzero"/></g></g></g><g clip-path="url(#3ce5797693)"><g clip-path="url(#23fe10d06b)"><g clip-path="url(#783bc345d9)"><path fill="#25aae1" d="M 501.746094 321.71875 L 524.714844 310.257812 L 586.414062 433.894531 L 563.445312 445.355469 Z M 501.746094 321.71875 " fill-opacity="1" fill-rule="nonzero"/></g></g></g><g clip-path="url(#4b5714bb32)"><g clip-path="url(#ed04e49faf)"><g clip-path="url(#aac0609abf)"><path fill="#25aae1" d="M 502.210938 315.617188 L 528 317.691406 L 516.902344 455.816406 L 491.109375 453.746094 Z M 502.210938 315.617188 " fill-opacity="1" fill-rule="nonzero"/></g></g></g><g clip-path="url(#2f6bebc6e3)"><g clip-path="url(#38b677d59b)"><g clip-path="url(#97184d846d)"><path fill="#25aae1" d="M 567.75 299.878906 L 596.0625 301.210938 L 589.421875 442.105469 L 561.109375 440.769531 Z M 567.75 299.878906 " fill-opacity="1" fill-rule="nonzero"/></g></g></g><g clip-path="url(#f06be40f4b)"><g clip-path="url(#d3505f2d75)"><g clip-path="url(#faec35fff6)"><path fill="#25aae1" d="M 501.746094 315.21875 L 524.335938 310.257812 L 530.132812 336.640625 L 507.542969 341.605469 Z M 501.746094 315.21875 " fill-opacity="1" fill-rule="nonzero"/></g></g></g><g clip-path="url(#92803370be)"><g clip-path="url(#dd3032be71)"><g clip-path="url(#c5464b4de9)"><path fill="#25aae1" d="M 485.535156 434.917969 L 510.144531 429.511719 L 515.933594 455.851562 L 491.320312 461.257812 Z M 485.535156 434.917969 " fill-opacity="1" fill-rule="nonzero"/></g></g></g><g clip-path="url(#76d63b02ec)"><g clip-path="url(#46ed4abd08)"><g clip-path="url(#8269d445f5)"><path fill="#25aae1" d="M 558.246094 421.136719 L 582.855469 415.730469 L 588.644531 442.070312 L 564.03125 447.476562 Z M 558.246094 421.136719 " fill-opacity="1" fill-rule="nonzero"/></g></g></g><g clip-path="url(#f4fb35836d)"><g clip-path="url(#e4a23926e2)"><g clip-path="url(#0bcb340720)"><path fill="#f7941d" d="M 333.089844 351.625 L 362.414062 345.695312 L 389.519531 479.707031 L 360.195312 485.636719 Z M 333.089844 351.625 " fill-opacity="1" fill-rule="nonzero"/></g></g></g><g clip-path="url(#ff8de51471)"><g clip-path="url(#62cc648128)"><g clip-path="url(#e0e6747f49)"><path fill="#f7941d" d="M 366.847656 374.554688 L 360.925781 346.011719 L 425.59375 332.59375 L 431.515625 361.136719 Z M 366.847656 374.554688 " fill-opacity="1" fill-rule="nonzero"/></g></g></g><g clip-path="url(#9fdfce512b)"><g clip-path="url(#e62431f193)"><g clip-path="url(#db68738a80)"><path fill="#f7941d" d="M 384.703125 480.023438 L 378.78125 451.480469 L 446.570312 437.414062 L 452.492188 465.957031 Z M 384.703125 480.023438 " fill-opacity="1" fill-rule="nonzero"/></g></g></g><g clip-path="url(#882c0753a7)"><g clip-path="url(#9b54c25928)"><g clip-path="url(#c790029763)"><path fill="#f7941d" d="M 363.207031 427.65625 L 357.28125 399.113281 L 421.949219 385.695312 L 427.875 414.238281 Z M 363.207031 427.65625 " fill-opacity="1" fill-rule="nonzero"/></g></g></g></svg>