<svg xmlns="http://www.w3.org/2000/svg" xmlns:xlink="http://www.w3.org/1999/xlink" width="1080" zoomAndPan="magnify" viewBox="0 0 810 809.999993" height="1080" preserveAspectRatio="xMidYMid meet" version="1.0"><defs><clipPath id="80b3572661"><path d="M 197.957031 89.953125 L 276.574219 89.953125 L 276.574219 168.570312 L 197.957031 168.570312 Z M 197.957031 89.953125 " clip-rule="nonzero"/></clipPath><clipPath id="03be2602ad"><path d="M 237.265625 89.953125 C 215.554688 89.953125 197.957031 107.550781 197.957031 129.261719 C 197.957031 150.96875 215.554688 168.570312 237.265625 168.570312 C 258.972656 168.570312 276.574219 150.96875 276.574219 129.261719 C 276.574219 107.550781 258.972656 89.953125 237.265625 89.953125 Z M 237.265625 89.953125 " clip-rule="nonzero"/></clipPath><clipPath id="1d2c123728"><path d="M 158.648438 195.523438 L 237.265625 195.523438 L 237.265625 274.140625 L 158.648438 274.140625 Z M 158.648438 195.523438 " clip-rule="nonzero"/></clipPath><clipPath id="6d637efe2f"><path d="M 197.957031 195.523438 C 176.246094 195.523438 158.648438 213.121094 158.648438 234.832031 C 158.648438 256.539062 176.246094 274.140625 197.957031 274.140625 C 219.664062 274.140625 237.265625 256.539062 237.265625 234.832031 C 237.265625 213.121094 219.664062 195.523438 197.957031 195.523438 Z M 197.957031 195.523438 " clip-rule="nonzero"/></clipPath><clipPath id="ef7542e329"><path d="M 598.003906 500.667969 L 676.621094 500.667969 L 676.621094 579.285156 L 598.003906 579.285156 Z M 598.003906 500.667969 " clip-rule="nonzero"/></clipPath><clipPath id="4865d4bbd3"><path d="M 637.3125 500.667969 C 615.601562 500.667969 598.003906 518.269531 598.003906 539.976562 C 598.003906 561.6875 615.601562 579.285156 637.3125 579.285156 C 659.019531 579.285156 676.621094 561.6875 676.621094 539.976562 C 676.621094 518.269531 659.019531 500.667969 637.3125 500.667969 Z M 637.3125 500.667969 " clip-rule="nonzero"/></clipPath><clipPath id="797ccc1735"><path d="M 429.546875 75.214844 L 508.164062 75.214844 L 508.164062 153.832031 L 429.546875 153.832031 Z M 429.546875 75.214844 " clip-rule="nonzero"/></clipPath><clipPath id="f17c05c5fe"><path d="M 468.855469 75.214844 C 447.144531 75.214844 429.546875 92.8125 429.546875 114.523438 C 429.546875 136.230469 447.144531 153.832031 468.855469 153.832031 C 490.5625 153.832031 508.164062 136.230469 508.164062 114.523438 C 508.164062 92.8125 490.5625 75.214844 468.855469 75.214844 Z M 468.855469 75.214844 " clip-rule="nonzero"/></clipPath><clipPath id="6e26bb2f17"><path d="M 676.621094 422.050781 L 755.238281 422.050781 L 755.238281 500.667969 L 676.621094 500.667969 Z M 676.621094 422.050781 " clip-rule="nonzero"/></clipPath><clipPath id="ff7805cad3"><path d="M 715.929688 422.050781 C 694.21875 422.050781 676.621094 439.648438 676.621094 461.359375 C 676.621094 483.070312 694.21875 500.667969 715.929688 500.667969 C 737.636719 500.667969 755.238281 483.070312 755.238281 461.359375 C 755.238281 439.648438 737.636719 422.050781 715.929688 422.050781 Z M 715.929688 422.050781 " clip-rule="nonzero"/></clipPath><clipPath id="67533133c9"><path d="M 637.3125 214.410156 L 715.929688 214.410156 L 715.929688 293.03125 L 637.3125 293.03125 Z M 637.3125 214.410156 " clip-rule="nonzero"/></clipPath><clipPath id="1d38b5ef14"><path d="M 676.621094 214.410156 C 654.910156 214.410156 637.3125 232.011719 637.3125 253.71875 C 637.3125 275.429688 654.910156 293.03125 676.621094 293.03125 C 698.328125 293.03125 715.929688 275.429688 715.929688 253.71875 C 715.929688 232.011719 698.328125 214.410156 676.621094 214.410156 Z M 676.621094 214.410156 " clip-rule="nonzero"/></clipPath></defs><path stroke-linecap="round" transform="matrix(33.749998, 0, 0, 33.749998, 0.0000035, 0.00002)" fill="none" stroke-linejoin="round" d="M 5.571296 14.5 L 9.465857 18.414121 M 18.999654 3.609722 C 17.404399 3.595023 16.665857 4.332291 16.423612 5.07743 C 16.210302 5.733565 16.405209 7.077315 15.89595 8.072685 C 15.409144 9.024421 14.120371 9.56169 12.657061 9.606944 M 20.000001 7.610416 L 20.009955 7.610532 M 19.000001 15.959954 L 19.009955 15.96007 M 7 3.949305 L 7.009954 3.949305 M 19.000001 11.109375 C 17.500001 11.109375 16.500001 11.609375 15.594908 12.544676 M 10.237732 7.187963 C 11 6.109953 11.5 5.109953 11.008218 3.527314 M 3.535764 20.464468 L 7.071297 9.85787 L 14.142362 16.929051 Z M 3.535764 20.464468 " stroke="#ff5757" stroke-width="2" stroke-opacity="1" stroke-miterlimit="4"/><g clip-path="url(#80b3572661)"><g clip-path="url(#03be2602ad)"><path fill="#25aae1" d="M 197.957031 89.953125 L 276.574219 89.953125 L 276.574219 168.570312 L 197.957031 168.570312 Z M 197.957031 89.953125 " fill-opacity="1" fill-rule="nonzero"/></g></g><g clip-path="url(#1d2c123728)"><g clip-path="url(#6d637efe2f)"><path fill="#f7941d" d="M 158.648438 195.523438 L 237.265625 195.523438 L 237.265625 274.140625 L 158.648438 274.140625 Z M 158.648438 195.523438 " fill-opacity="1" fill-rule="nonzero"/></g></g><g clip-path="url(#ef7542e329)"><g clip-path="url(#4865d4bbd3)"><path fill="#f7941d" d="M 598.003906 500.667969 L 676.621094 500.667969 L 676.621094 579.285156 L 598.003906 579.285156 Z M 598.003906 500.667969 " fill-opacity="1" fill-rule="nonzero"/></g></g><g clip-path="url(#797ccc1735)"><g clip-path="url(#f17c05c5fe)"><path fill="#25aae1" d="M 429.546875 75.214844 L 508.164062 75.214844 L 508.164062 153.832031 L 429.546875 153.832031 Z M 429.546875 75.214844 " fill-opacity="1" fill-rule="nonzero"/></g></g><g clip-path="url(#6e26bb2f17)"><g clip-path="url(#ff7805cad3)"><path fill="#25aae1" d="M 676.621094 422.050781 L 755.238281 422.050781 L 755.238281 500.667969 L 676.621094 500.667969 Z M 676.621094 422.050781 " fill-opacity="1" fill-rule="nonzero"/></g></g><g clip-path="url(#67533133c9)"><g clip-path="url(#1d38b5ef14)"><path fill="#f7941d" d="M 637.3125 214.410156 L 715.929688 214.410156 L 715.929688 293.03125 L 637.3125 293.03125 Z M 637.3125 214.410156 " fill-opacity="1" fill-rule="nonzero"/></g></g></svg>